<?xml version="1.0" encoding="utf-8"?>
<!-- Generator: Adobe Illustrator 16.0.3, SVG Export Plug-In . SVG Version: 6.00 Build 0)  -->
<!DOCTYPE svg PUBLIC "-//W3C//DTD SVG 1.1//EN" "http://www.w3.org/Graphics/SVG/1.1/DTD/svg11.dtd">
<svg version="1.1" id="Capa_1" xmlns="http://www.w3.org/2000/svg" xmlns:xlink="http://www.w3.org/1999/xlink" x="0px" y="0px"
	 width="745px" height="768px" viewBox="0 0 745 768" enable-background="new 0 0 745 768" xml:space="preserve">
<g id="Capa_1_1_" display="none">
	<rect x="1020" y="51" display="inline" fill="#221E1F" width="744" height="539"/>
	<rect x="1019.5" y="589.5" display="inline" fill="#2B2B2D" width="745" height="142"/>
	<rect x="-0.5" y="-829.5" display="inline" fill="#231F20" width="745" height="683"/>
	<rect x="459.5" y="-431.5" display="inline" fill="#404042" width="249" height="284"/>
	<rect x="46" y="-795" display="inline" fill="#414141" width="663" height="325"/>
	<rect x="1019.5" y="-825.5" display="inline" fill="#221E1F" width="745" height="675"/>
	<rect x="1064.5" y="-712.5" display="inline" fill="#2B2B2D" width="232" height="413"/>
	<rect x="1024.5" y="-809.5" display="inline" fill="#58585A" width="740.5" height="53.166"/>
	<rect x="1064.5" y="-531.5" display="inline" fill="#EE6524" width="232" height="36"/>
	<rect x="-955.5" y="143.5" display="inline" fill="#404042" width="663" height="326"/>
	<rect x="1020" y="-1676" display="inline" fill="#221E1F" width="745" height="682"/>
	<rect x="0.5" y="-1471.5" display="inline" fill="#231F20" width="744" height="477"/>
	<rect x="461.5" y="-1471.5" display="inline" fill="#423E42" width="240" height="477"/>
	<rect x="0.5" y="-1671.5" display="inline" fill="#58585A" width="745" height="200.096"/>
	<rect x="1020.5" y="-1664.5" display="inline" fill="#58585A" width="745" height="72"/>
	<rect x="-960.5" y="-1566.5" display="inline" fill="#404042" width="663.5" height="571.998"/>
	<rect x="-993" y="-830.936" display="inline" fill="#404042" width="745" height="684.434"/>
	<rect x="-993" y="123" display="inline" fill="#231F20" width="745" height="675.498"/>
	<rect x="-522.5" y="-1566.5" display="inline" fill="#6C6D71" width="194" height="573"/>
	<rect x="-996.5" y="-1671.5" display="inline" fill="#58585A" width="745.5" height="105"/>
	<rect x="-984.5" y="-1644.5" display="inline" fill="#F26523" width="216" height="47"/>
	<rect x="-693.5" y="-1633.5" display="inline" fill="#D7D8DA" width="132" height="27"/>
	<rect x="-547.5" y="-1633.5" display="inline" fill="#E5E6E8" width="132" height="27"/>
	<rect x="203.5" y="-1624.333" display="inline" fill="#E5E6E8" width="254.544" height="31.833"/>
	<rect x="-400.5" y="-1633.5" display="inline" fill="#E7A234" width="132" height="27"/>
	<rect x="-992.881" y="67.5" display="inline" fill="#58585A" width="744.881" height="55.5"/>
	<rect x="-291.724" y="82.771" display="inline" fill="#F26523" width="24.42" height="24.843"/>
	<rect x="-495.724" y="293.296" display="inline" fill="#F26523" width="24.42" height="26.318"/>
	<rect x="-549.59" y="82.296" display="inline" fill="#D7D8DA" width="108.59" height="25.994"/>
	<rect x="-780.59" y="293.296" display="inline" fill="#D7D8DA" width="285.295" height="25.994"/>
	<rect x="-418.59" y="82.296" display="inline" fill="#D7D8DA" width="108.59" height="25.994"/>
	<rect x="40.5" y="-1639.396" display="inline" fill="#E7A234" width="132" height="137.993"/>
	<rect x="491.5" y="-1432.396" display="inline" fill="#C21E3C" width="68.705" height="70.486"/>
	<rect x="1080.5" y="-1564.396" display="inline" fill="#C21E3C" width="64.509" height="62.993"/>
	<rect x="491.5" y="-1323.396" display="inline" fill="#E61D2E" width="68.705" height="70.486"/>
	<rect x="491.5" y="-1220.396" display="inline" fill="#C91F27" width="68.705" height="70.486"/>
	<rect x="-418.5" y="642.333" display="inline" fill="#575759" width="48.833" height="47.758"/>
	<rect x="-418.5" y="570.333" display="inline" fill="#575759" width="48.833" height="47.758"/>
	<rect x="-418.5" y="501.333" display="inline" fill="#575759" width="48.833" height="47.758"/>
	<rect x="40.5" y="-1437.396" display="inline" fill="#404042" width="357.835" height="211.063"/>
	<rect x="1080.5" y="-1471.396" display="inline" fill="#404042" width="640.479" height="278.979"/>
	<rect x="491.5" y="-1111.396" display="inline" fill="#EE5851" width="68.705" height="70.486"/>
	<rect x="332.5" y="-1124.396" display="inline" fill="#57595B" width="68.705" height="70.486"/>
	<rect x="235.5" y="-1124.396" display="inline" fill="#57595B" width="68.705" height="70.486"/>
	<rect x="136.5" y="-1124.396" display="inline" fill="#57595B" width="68.705" height="70.486"/>
	<rect x="37.5" y="-1124.396" display="inline" fill="#57595B" width="68.705" height="70.486"/>
	<rect x="-500.5" y="-1541.5" display="inline" fill="#949599" width="145" height="27"/>
	<rect x="-500.5" y="-1401.5" display="inline" fill="#949599" width="145" height="27"/>
	<rect x="-500.5" y="-1263.5" display="inline" fill="#939498" width="145" height="27"/>
	<rect x="-500.5" y="-1123.5" display="inline" fill="#939498" width="145" height="27"/>
	<rect x="-953.5" y="-315.5" display="inline" fill="#939498" width="252.102" height="27"/>
	<rect x="-953.5" y="-784.5" display="inline" fill="#939498" width="252.102" height="27"/>
	<rect x="-599.5" y="-315.5" display="inline" fill="#939498" width="252.102" height="27"/>
	<rect x="-921.5" y="-1123.5" display="inline" fill="#E5E6E8" width="257" height="32"/>
	<rect x="-921.5" y="-1381.5" display="inline" fill="#E6E6E8" width="257" height="32"/>
	<rect x="-921.5" y="-1528.5" display="inline" fill="#F36422" width="211" height="135"/>
	<rect x="-921.5" y="-1263.5" display="inline" fill="#E6A233" width="128" height="130"/>
	<rect x="-953.5" y="501.5" display="inline" fill="#E6A233" width="182.669" height="185.523"/>
	<rect x="572.5" y="-1431.5" display="inline" fill="#949597" width="98" height="20"/>
	<rect x="572.5" y="-1323.5" display="inline" fill="#959496" width="98" height="20"/>
	<rect x="572.5" y="-1220.5" display="inline" fill="#959597" width="98" height="20"/>
	<rect x="1157.5" y="-1565.333" display="inline" fill="#959597" width="185.499" height="11.666"/>
	<rect x="572.5" y="-1112.5" display="inline" fill="#939396" width="98" height="20"/>
	<rect x="1378.5" y="-365.656" display="inline" fill="#D1D1D1" width="80.5" height="12.813"/>
	<rect x="1496.5" y="-365.656" display="inline" fill="#D1D1D1" width="80.5" height="12.813"/>
	<rect x="1614.5" y="-365.656" display="inline" fill="#D1D1D1" width="80.5" height="12.813"/>
	<rect x="1476" y="-1645" display="inline" fill="#E5E6E8" width="254" height="28"/>
	<rect x="1039" y="-1645" display="inline" fill="#E5E6E8" width="106.009" height="28"/>
	<rect x="1730.5" y="-1645.5" display="inline" fill="#F4641E" width="29" height="28"/>
	<rect x="1603.48" y="-795.1" display="inline" fill="#E5E6E8" width="108.52" height="20.675"/>
	<rect x="1475.48" y="-795.1" display="inline" fill="#E5E6E8" width="108.52" height="20.675"/>
	<rect x="1392.48" y="-795.1" display="inline" fill="#A9AAAC" width="21.187" height="20.675"/>
	<rect x="1431.48" y="-795.1" display="inline" fill="#A9AAAC" width="21.187" height="20.675"/>
	<rect x="1730.211" y="-795.471" display="inline" fill="#F4641E" width="28.825" height="20.675"/>
	<rect x="1547" y="-1077" display="inline" fill="#404042" width="49" height="45"/>
	<rect x="1608.5" y="-1076.5" display="inline" fill="#58595A" width="49" height="45"/>
	<rect x="1671.5" y="-1076.5" display="inline" fill="#6D6D71" width="49" height="45"/>
	<rect x="-961.5" y="-719.5" display="inline" fill="#C31E3E" width="664" height="327"/>
	<polygon display="inline" fill="#FFFFFF" points="-655,-620.946 -561.325,-554.913 -655,-492 	"/>
	<rect x="71.5" y="-771.5" display="inline" fill="#C31E3E" width="272.549" height="272.047"/>
	<polygon display="inline" fill="#FFFFFF" points="181,-672.946 232.123,-636.908 181,-602.573 	"/>
	<rect x="-954" y="-751" display="inline" fill="#231F20" width="361" height="12"/>
	<rect x="-636" y="82" display="inline" fill="#404042" width="27" height="26"/>
	<rect x="-592" y="82" display="inline" fill="#404042" width="27" height="26"/>
	<rect x="-733" y="502" display="inline" fill="#58585A" width="257" height="25"/>
	<rect x="-360" y="501" display="inline" fill="#575759" width="67" height="7"/>
	<rect x="-360" y="574" display="inline" fill="#575759" width="67" height="7"/>
	<rect x="-360" y="642" display="inline" fill="#575759" width="67" height="7"/>
	<rect x="1375" y="-470" display="inline" fill="#EE6524" width="88" height="88"/>
	<rect x="42" y="-435" display="inline" fill="#EE6524" width="104.061" height="112.36"/>
	<rect x="180" y="-435" display="inline" fill="#EE6524" width="102.061" height="110.2"/>
	<rect x="321" y="-435" display="inline" fill="#EE6524" width="104" height="112.294"/>
	<rect x="1493" y="-470" display="inline" fill="#EE6524" width="88" height="88"/>
	<rect x="1614" y="-470" display="inline" fill="#EE6524" width="88" height="88"/>
	<rect x="1375" y="-713" display="inline" fill="#221E1F" width="327" height="211"/>
	
		<line display="inline" fill="none" stroke="#221E1F" stroke-width="3" stroke-miterlimit="10" x1="1092" y1="-517.5" x2="1267" y2="-517.5"/>
	<polygon display="inline" fill="#D1D1D1" points="1357.5,-629 1357.5,-607 1337,-618 	"/>
	<polygon display="inline" fill="#D1D1D1" points="1712,-629 1712,-607 1732.5,-618 	"/>
	<rect x="1031" y="-268" display="inline" fill="#2C2C2E" width="734" height="117"/>
	<rect x="372.5" y="-704.5" display="inline" fill="#6C6D6F" width="238" height="32"/>
	<rect x="484" y="-412" display="inline" fill="#8E8E90" width="196" height="16"/>
	<rect x="484" y="-324" display="inline" fill="#8E8E90" width="196" height="16"/>
	<rect x="484" y="-236" display="inline" fill="#8E8E90" width="196" height="16"/>
	<rect x="42" y="-312" display="inline" fill="#A5A7A6" width="104" height="19"/>
	<rect x="180" y="-312" display="inline" fill="#A5A7A6" width="104" height="19"/>
	<rect x="321" y="-312" display="inline" fill="#A5A7A6" width="104" height="19"/>
	<rect x="1064" y="166" display="inline" fill="#404042" width="104" height="105"/>
	<rect x="1064" y="287" display="inline" fill="#404042" width="104" height="105"/>
	<rect x="1064" y="406" display="inline" fill="#404042" width="104" height="105"/>
	<rect x="1186" y="406" display="inline" fill="#2B2B2D" width="545" height="100"/>
	<rect x="1186" y="289" display="inline" fill="#2B2B2D" width="545" height="100"/>
	<rect x="1186" y="171" display="inline" fill="#2B2B2D" width="545" height="100"/>
	<rect x="1060" y="626" display="inline" fill="#EE6628" width="130" height="17"/>
	<rect x="1241" y="626" display="inline" fill="#EE6628" width="130" height="17"/>
	<rect x="1423" y="626" display="inline" fill="#EE6628" width="130" height="17"/>
	<rect x="1426" y="550" display="inline" fill="#373435" width="301.5" height="9.75"/>
	<rect x="1426" y="528" display="inline" fill="#373435" width="301.5" height="9.75"/>
	<rect x="1066" y="87" display="inline" fill="#EE6628" width="196" height="18"/>
</g>
<g id="Capa_5" display="none">
	<rect y="51" display="inline" fill="#221E1F" width="745" height="676"/>
</g>
<g id="Capa_6" display="none">
	<rect x="449.5" y="627.333" display="inline" fill="#414041" width="68.167" height="65.667"/>
</g>
<g id="Capa_7" display="none">
	<rect x="541.5" y="627.333" display="inline" fill="#414041" width="68.167" height="65.667"/>
</g>
<g id="Capa_8" display="none">
	<rect x="637.5" y="627.333" display="inline" fill="#414041" width="68.167" height="65.667"/>
</g>
<g id="Capa_9" display="none">
	<rect x="39.5" y="570.333" display="inline" fill="#58595A" width="42.5" height="45.667"/>
</g>
<g id="Capa_10" display="none">
	<rect x="103.5" y="570.333" display="inline" fill="#58595A" width="42.5" height="45.667"/>
</g>
<g id="Capa_11" display="none">
	<rect x="166.5" y="570.333" display="inline" fill="#58595A" width="42.5" height="45.667"/>
</g>
<g id="Capa_12" display="none">
	<rect x="39" y="486" display="inline" fill="#F26523" width="170" height="15"/>
</g>
<g id="Capa_13">
	<rect x="39.5" y="140.5" fill="#6C6D71" width="662" height="325"/>
</g>
<g id="Capa_14" display="none">
	<rect x="292" y="407" display="inline" fill="#575757" width="27" height="28"/>
	<rect x="334" y="407" display="inline" fill="#575757" width="27" height="28"/>
	<rect x="379" y="407" display="inline" fill="#575757" width="27" height="28"/>
	<rect x="422" y="407" display="inline" fill="#575757" width="27" height="28"/>
</g>
<g id="Capa_15" display="none">
	<rect x="-0.5" y="71.5" display="inline" fill="#58585A" width="745.5" height="53.166"/>
</g>
<g id="Capa_16" display="none">
	<rect x="364.481" y="82.9" display="inline" fill="#A9AAAC" width="21.186" height="20.675"/>
</g>
<g id="Capa_17" display="none">
	<rect x="403.481" y="82.9" display="inline" fill="#A9AAAC" width="21.186" height="20.675"/>
</g>
<g id="Capa_18" display="none">
	<rect x="447.481" y="82.9" display="inline" fill="#E5E6E8" width="108.519" height="20.675"/>
</g>
<g id="Capa_19" display="none">
	<rect x="575.481" y="82.9" display="inline" fill="#E5E6E8" width="108.519" height="20.675"/>
</g>
<g id="Capa_20" display="none">
	<rect x="702.211" y="82.529" display="inline" fill="#F4641E" width="28.825" height="21.046"/>
</g>
<text transform="matrix(1 0 0 1 115.0005 328.501)" fill="#FFFFFF" font-family="'MyriadPro-Regular'" font-size="95.3183">soy un slider</text>
</svg>
