<?xml version="1.0" encoding="utf-8"?>
<!-- Generator: Adobe Illustrator 16.0.3, SVG Export Plug-In . SVG Version: 6.00 Build 0)  -->
<!DOCTYPE svg PUBLIC "-//W3C//DTD SVG 1.1//EN" "http://www.w3.org/Graphics/SVG/1.1/DTD/svg11.dtd">
<svg version="1.1" xmlns="http://www.w3.org/2000/svg" xmlns:xlink="http://www.w3.org/1999/xlink" x="0px" y="0px" width="745px"
	 height="768px" viewBox="0 0 745 768" enable-background="new 0 0 745 768" xml:space="preserve">
<g id="Capa_1" display="none">
	<rect x="2016" y="51" display="inline" fill="#221E1F" width="744" height="539"/>
	<rect x="2015.5" y="589.5" display="inline" fill="#2B2B2D" width="745" height="142"/>
	<rect x="996" y="51" display="inline" fill="#221E1F" width="745" height="676"/>
	<rect x="1035.5" y="140.5" display="inline" fill="#6C6D71" width="662" height="325"/>
	<rect x="995.5" y="-829.5" display="inline" fill="#231F20" width="745" height="683"/>
	<rect x="1455.5" y="-431.5" display="inline" fill="#404042" width="249" height="284"/>
	<rect x="1042" y="-795" display="inline" fill="#414141" width="663" height="325"/>
	<rect x="2015.5" y="-825.5" display="inline" fill="#221E1F" width="745" height="675"/>
	<rect x="2060.5" y="-712.5" display="inline" fill="#2B2B2D" width="232" height="413"/>
	<rect x="2020.5" y="-809.5" display="inline" fill="#58585A" width="740.5" height="53.166"/>
	<rect x="2060.5" y="-531.5" display="inline" fill="#EE6524" width="232" height="36"/>
	<rect x="2016" y="-1676" display="inline" fill="#221E1F" width="745" height="682"/>
	<rect x="996.5" y="-1471.5" display="inline" fill="#231F20" width="744" height="477"/>
	<rect x="1457.5" y="-1471.5" display="inline" fill="#423E42" width="240" height="477"/>
	<rect x="996.5" y="-1671.5" display="inline" fill="#58585A" width="745" height="200.096"/>
	<rect x="2016.5" y="-1664.5" display="inline" fill="#58585A" width="745" height="72"/>
	<rect x="35.5" y="-1566.5" display="inline" fill="#404042" width="663.5" height="571.998"/>
	<rect x="3" y="-830.936" display="inline" fill="#404042" width="745" height="684.434"/>
	<rect x="473.5" y="-1566.5" display="inline" fill="#6C6D71" width="194" height="573"/>
	<rect x="-0.5" y="-1671.5" display="inline" fill="#58585A" width="745.5" height="105"/>
	<rect x="11.5" y="-1644.5" display="inline" fill="#F26523" width="216" height="47"/>
	<rect x="302.5" y="-1633.5" display="inline" fill="#D7D8DA" width="132" height="27"/>
	<rect x="448.5" y="-1633.5" display="inline" fill="#E5E6E8" width="132" height="27"/>
	<rect x="1199.5" y="-1624.333" display="inline" fill="#E5E6E8" width="254.544" height="31.833"/>
	<rect x="595.5" y="-1633.5" display="inline" fill="#E7A234" width="132" height="27"/>
	<rect x="1036.5" y="-1639.396" display="inline" fill="#E7A234" width="132" height="137.993"/>
	<rect x="1487.5" y="-1432.396" display="inline" fill="#C21E3C" width="68.705" height="70.486"/>
	<rect x="2076.5" y="-1564.396" display="inline" fill="#C21E3C" width="64.509" height="62.993"/>
	<rect x="1487.5" y="-1323.396" display="inline" fill="#E61D2E" width="68.705" height="70.486"/>
	<rect x="1487.5" y="-1220.396" display="inline" fill="#C91F27" width="68.705" height="70.486"/>
	<rect x="1162.5" y="570.333" display="inline" fill="#58595A" width="42.5" height="45.667"/>
	<rect x="1445.5" y="627.333" display="inline" fill="#414041" width="68.167" height="65.667"/>
	<rect x="1537.5" y="627.333" display="inline" fill="#414041" width="68.167" height="65.667"/>
	<rect x="1633.5" y="627.333" display="inline" fill="#414041" width="68.167" height="65.667"/>
	<rect x="1099.5" y="570.333" display="inline" fill="#58595A" width="42.5" height="45.667"/>
	<rect x="1035.5" y="570.333" display="inline" fill="#58595A" width="42.5" height="45.667"/>
	<rect x="1036.5" y="-1437.396" display="inline" fill="#404042" width="357.835" height="211.063"/>
	<rect x="2076.5" y="-1471.396" display="inline" fill="#404042" width="640.479" height="278.979"/>
	<rect x="1487.5" y="-1111.396" display="inline" fill="#EE5851" width="68.705" height="70.486"/>
	<rect x="1328.5" y="-1124.396" display="inline" fill="#57595B" width="68.705" height="70.486"/>
	<rect x="1231.5" y="-1124.396" display="inline" fill="#57595B" width="68.705" height="70.486"/>
	<rect x="1132.5" y="-1124.396" display="inline" fill="#57595B" width="68.705" height="70.486"/>
	<rect x="1033.5" y="-1124.396" display="inline" fill="#57595B" width="68.705" height="70.486"/>
	<rect x="495.5" y="-1541.5" display="inline" fill="#949599" width="145" height="27"/>
	<rect x="495.5" y="-1401.5" display="inline" fill="#949599" width="145" height="27"/>
	<rect x="495.5" y="-1263.5" display="inline" fill="#939498" width="145" height="27"/>
	<rect x="495.5" y="-1123.5" display="inline" fill="#939498" width="145" height="27"/>
	<rect x="42.5" y="-315.5" display="inline" fill="#939498" width="252.102" height="27"/>
	<rect x="42.5" y="-784.5" display="inline" fill="#939498" width="252.102" height="27"/>
	<rect x="396.5" y="-315.5" display="inline" fill="#939498" width="252.102" height="27"/>
	<rect x="74.5" y="-1123.5" display="inline" fill="#E5E6E8" width="257" height="32"/>
	<rect x="74.5" y="-1381.5" display="inline" fill="#E6E6E8" width="257" height="32"/>
	<rect x="74.5" y="-1528.5" display="inline" fill="#F36422" width="211" height="135"/>
	<rect x="74.5" y="-1263.5" display="inline" fill="#E6A233" width="128" height="130"/>
	<rect x="1568.5" y="-1431.5" display="inline" fill="#949597" width="98" height="20"/>
	<rect x="1568.5" y="-1323.5" display="inline" fill="#959496" width="98" height="20"/>
	<rect x="1568.5" y="-1220.5" display="inline" fill="#959597" width="98" height="20"/>
	<rect x="2153.5" y="-1565.333" display="inline" fill="#959597" width="185.499" height="11.666"/>
	<rect x="1568.5" y="-1112.5" display="inline" fill="#939396" width="98" height="20"/>
	<rect x="2374.5" y="-365.656" display="inline" fill="#D1D1D1" width="80.5" height="12.813"/>
	<rect x="2492.5" y="-365.656" display="inline" fill="#D1D1D1" width="80.5" height="12.813"/>
	<rect x="2610.5" y="-365.656" display="inline" fill="#D1D1D1" width="80.5" height="12.813"/>
	<rect x="2472" y="-1645" display="inline" fill="#E5E6E8" width="254" height="28"/>
	<rect x="2035" y="-1645" display="inline" fill="#E5E6E8" width="106.009" height="28"/>
	<rect x="2726.5" y="-1645.5" display="inline" fill="#F4641E" width="29" height="28"/>
	<rect x="2599.481" y="-795.1" display="inline" fill="#E5E6E8" width="108.519" height="20.675"/>
	<rect x="2471.481" y="-795.1" display="inline" fill="#E5E6E8" width="108.519" height="20.675"/>
	<rect x="2388.481" y="-795.1" display="inline" fill="#A9AAAC" width="21.186" height="20.675"/>
	<rect x="2427.481" y="-795.1" display="inline" fill="#A9AAAC" width="21.186" height="20.675"/>
	<rect x="2726.211" y="-795.471" display="inline" fill="#F4641E" width="28.825" height="20.675"/>
	<rect x="995.5" y="71.5" display="inline" fill="#58585A" width="745.5" height="53.166"/>
	<rect x="1571.481" y="82.9" display="inline" fill="#E5E6E8" width="108.519" height="20.675"/>
	<rect x="1443.481" y="82.9" display="inline" fill="#E5E6E8" width="108.519" height="20.675"/>
	<rect x="1360.481" y="82.9" display="inline" fill="#A9AAAC" width="21.186" height="20.675"/>
	<rect x="1399.481" y="82.9" display="inline" fill="#A9AAAC" width="21.186" height="20.675"/>
	<rect x="1698.211" y="82.529" display="inline" fill="#F4641E" width="28.825" height="21.046"/>
	<rect x="2543" y="-1077" display="inline" fill="#404042" width="49" height="45"/>
	<rect x="2604.5" y="-1076.5" display="inline" fill="#58595A" width="49" height="45"/>
	<rect x="2667.5" y="-1076.5" display="inline" fill="#6D6D71" width="49" height="45"/>
	<rect x="34.5" y="-719.5" display="inline" fill="#C31E3E" width="664" height="327"/>
	<polygon display="inline" fill="#FFFFFF" points="341,-620.946 434.675,-554.913 341,-492 	"/>
	<rect x="1067.5" y="-771.5" display="inline" fill="#C31E3E" width="272.549" height="272.047"/>
	<polygon display="inline" fill="#FFFFFF" points="1177,-672.946 1228.123,-636.908 1177,-602.573 	"/>
	<rect x="42" y="-751" display="inline" fill="#231F20" width="361" height="12"/>
	<rect x="2371" y="-470" display="inline" fill="#EE6524" width="88" height="88"/>
	<rect x="1038" y="-435" display="inline" fill="#EE6524" width="104.061" height="112.36"/>
	<rect x="1176" y="-435" display="inline" fill="#EE6524" width="102.061" height="110.2"/>
	<rect x="1317" y="-435" display="inline" fill="#EE6524" width="104" height="112.294"/>
	<rect x="2489" y="-470" display="inline" fill="#EE6524" width="88" height="88"/>
	<rect x="2610" y="-470" display="inline" fill="#EE6524" width="88" height="88"/>
	<rect x="2371" y="-713" display="inline" fill="#221E1F" width="327" height="211"/>
	
		<line display="inline" fill="none" stroke="#221E1F" stroke-width="3" stroke-miterlimit="10" x1="2088" y1="-517.5" x2="2263" y2="-517.5"/>
	<polygon display="inline" fill="#D1D1D1" points="2353.5,-629 2353.5,-607 2333,-618 	"/>
	<polygon display="inline" fill="#D1D1D1" points="2708,-629 2708,-607 2728.5,-618 	"/>
	<rect x="2027" y="-268" display="inline" fill="#2C2C2E" width="734" height="117"/>
	<rect x="1368.5" y="-704.5" display="inline" fill="#6C6D6F" width="238" height="32"/>
	<rect x="1480" y="-412" display="inline" fill="#8E8E90" width="196" height="16"/>
	<rect x="1480" y="-324" display="inline" fill="#8E8E90" width="196" height="16"/>
	<rect x="1480" y="-236" display="inline" fill="#8E8E90" width="196" height="16"/>
	<rect x="1038" y="-312" display="inline" fill="#A5A7A6" width="104" height="19"/>
	<rect x="1176" y="-312" display="inline" fill="#A5A7A6" width="104" height="19"/>
	<rect x="1317" y="-312" display="inline" fill="#A5A7A6" width="104" height="19"/>
	<rect x="1288" y="407" display="inline" fill="#575757" width="27" height="28"/>
	<rect x="1330" y="407" display="inline" fill="#575757" width="27" height="28"/>
	<rect x="1375" y="407" display="inline" fill="#575757" width="27" height="28"/>
	<rect x="1418" y="407" display="inline" fill="#575757" width="27" height="28"/>
	<rect x="1035" y="486" display="inline" fill="#F26523" width="170" height="15"/>
	<rect x="2060" y="166" display="inline" fill="#404042" width="104" height="105"/>
	<rect x="2060" y="287" display="inline" fill="#404042" width="104" height="105"/>
	<rect x="2060" y="406" display="inline" fill="#404042" width="104" height="105"/>
	<rect x="2182" y="406" display="inline" fill="#2B2B2D" width="545" height="100"/>
	<rect x="2182" y="289" display="inline" fill="#2B2B2D" width="545" height="100"/>
	<rect x="2182" y="171" display="inline" fill="#2B2B2D" width="545" height="100"/>
	<rect x="2056" y="626" display="inline" fill="#EE6628" width="130" height="17"/>
	<rect x="2237" y="626" display="inline" fill="#EE6628" width="130" height="17"/>
	<rect x="2419" y="626" display="inline" fill="#EE6628" width="130" height="17"/>
	<rect x="2422" y="550" display="inline" fill="#373435" width="301.5" height="9.75"/>
	<rect x="2422" y="528" display="inline" fill="#373435" width="301.5" height="9.75"/>
	<rect x="2062" y="87" display="inline" fill="#EE6628" width="196" height="18"/>
</g>
<g id="Capa_2" display="none">
	<rect x="-8.383" y="123" display="inline" fill="#231F20" width="756.383" height="675.498"/>
</g>
<g id="Capa_3" display="none">
	<rect x="42.5" y="501.5" display="inline" fill="#E6A233" width="182.669" height="185.523"/>
</g>
<g id="Capa_4" display="none">
	<rect x="263" y="502" display="inline" fill="#58585A" width="257" height="25"/>
</g>
<g id="Capa_5" display="none">
	<rect x="577.5" y="501.333" display="inline" fill="#575759" width="48.833" height="47.758"/>
</g>
<g id="Capa_6" display="none">
	<rect x="577.5" y="570.333" display="inline" fill="#575759" width="48.833" height="47.758"/>
</g>
<g id="Capa_7" display="none">
	<rect x="577.5" y="642.333" display="inline" fill="#575759" width="48.833" height="47.758"/>
</g>
<g id="Capa_8" display="none">
	<rect x="636" y="642" display="inline" fill="#575759" width="67" height="7"/>
</g>
<g id="Capa_9" display="none">
	<rect x="636" y="574" display="inline" fill="#575759" width="67" height="7"/>
</g>
<g id="Capa_10" display="none">
	<rect x="636" y="501" display="inline" fill="#575759" width="67" height="7"/>
</g>
<g id="Capa_11" display="none">
	<rect x="40.5" y="143.5" display="inline" fill="#404042" width="663" height="326"/>
</g>
<g id="Capa_12" display="none">
	<rect x="215.41" y="293.296" display="inline" fill="#D7D8DA" width="285.295" height="25.994"/>
</g>
<g id="Capa_13" display="none">
	<rect x="500.276" y="293.296" display="inline" fill="#F26523" width="24.42" height="26.318"/>
</g>
<g id="Capa_14" display="none">
	<rect x="3.119" y="67.5" display="inline" fill="#58585A" width="744.881" height="55.5"/>
</g>
<g id="Capa_15" display="none">
	<rect x="360" y="82" display="inline" fill="#404042" width="27" height="26"/>
</g>
<g id="Capa_16" display="none">
	<rect x="404" y="82" display="inline" fill="#404042" width="27" height="26"/>
</g>
<g id="Capa_17" display="none">
	<rect x="446.41" y="82.296" display="inline" fill="#D7D8DA" width="108.59" height="25.994"/>
</g>
<g id="Capa_18">
	<rect x="577.41" y="82.296" fill="#D7D8DA" width="108.59" height="25.994"/>
</g>
<g id="Capa_19" display="none">
	<rect x="704.276" y="82.771" display="inline" fill="#F26523" width="24.42" height="24.843"/>
</g>
</svg>
