<?xml version="1.0" encoding="utf-8"?>
<!-- Generator: Adobe Illustrator 16.0.3, SVG Export Plug-In . SVG Version: 6.00 Build 0)  -->
<!DOCTYPE svg PUBLIC "-//W3C//DTD SVG 1.1//EN" "http://www.w3.org/Graphics/SVG/1.1/DTD/svg11.dtd">
<svg version="1.1" id="Capa_1" xmlns="http://www.w3.org/2000/svg" xmlns:xlink="http://www.w3.org/1999/xlink" x="0px" y="0px"
	 width="745px" height="768px" viewBox="0 0 745 768" enable-background="new 0 0 745 768" xml:space="preserve">
<g id="Capa_1_1_">
	<rect x="2016" y="927" fill="#221E1F" width="744" height="539"/>
	<rect x="2015.5" y="1465.5" fill="#2B2B2D" width="745" height="142"/>
	<rect x="996" y="927" fill="#221E1F" width="745" height="676"/>
	<rect x="1035.5" y="1016.5" fill="#6C6D71" width="662" height="325"/>
	<rect x="995.5" y="46.5" fill="#231F20" width="745" height="683"/>
	<rect x="1455.5" y="444.5" fill="#404042" width="249" height="284"/>
	<rect x="1042" y="81" fill="#414141" width="663" height="325"/>
	<rect x="2015.5" y="50.5" fill="#221E1F" width="745" height="675"/>
	<rect x="2060.5" y="163.5" fill="#2B2B2D" width="232" height="413"/>
	<rect x="2020.5" y="66.5" fill="#58585A" width="740.5" height="53.166"/>
	<rect x="2060.5" y="344.5" fill="#EE6524" width="232" height="36"/>
	<rect x="40.5" y="1019.5" fill="#404042" width="663" height="326"/>
	<rect x="2016" y="-800" fill="#221E1F" width="745" height="682"/>
	<rect x="996.5" y="-595.5" fill="#231F20" width="744" height="477"/>
	<rect x="1457.5" y="-595.5" fill="#423E42" width="240" height="477"/>
	<rect x="996.5" y="-795.5" fill="#58585A" width="745" height="200.096"/>
	<rect x="2016.5" y="-788.5" fill="#58585A" width="745" height="72"/>
	<rect x="35.5" y="-690.5" fill="#404042" width="663.5" height="571.998"/>
	<rect x="3" y="999" fill="#231F20" width="745" height="675.498"/>
	<rect x="473.5" y="-690.5" fill="#6C6D71" width="194" height="573"/>
	<rect x="-0.5" y="-795.5" fill="#58585A" width="745.5" height="105"/>
	<rect x="11.5" y="-768.5" fill="#F26523" width="216" height="47"/>
	<rect x="302.5" y="-757.5" fill="#D7D8DA" width="132" height="27"/>
	<rect x="448.5" y="-757.5" fill="#E5E6E8" width="132" height="27"/>
	<rect x="1199.5" y="-748.333" fill="#E5E6E8" width="254.544" height="31.833"/>
	<rect x="595.5" y="-757.5" fill="#E7A234" width="132" height="27"/>
	<rect x="3.119" y="943.5" fill="#58585A" width="744.881" height="55.5"/>
	<rect x="704.276" y="958.771" fill="#F26523" width="24.42" height="24.843"/>
	<rect x="500.276" y="1169.296" fill="#F26523" width="24.42" height="26.318"/>
	<rect x="446.41" y="958.296" fill="#D7D8DA" width="108.59" height="25.994"/>
	<rect x="215.41" y="1169.296" fill="#D7D8DA" width="285.295" height="25.994"/>
	<rect x="577.41" y="958.296" fill="#D7D8DA" width="108.59" height="25.994"/>
	<rect x="1036.5" y="-763.396" fill="#E7A234" width="132" height="137.993"/>
	<rect x="1487.5" y="-556.396" fill="#C21E3C" width="68.705" height="70.486"/>
	<rect x="2076.5" y="-688.396" fill="#C21E3C" width="64.509" height="62.993"/>
	<rect x="1487.5" y="-447.396" fill="#E61D2E" width="68.705" height="70.486"/>
	<rect x="1487.5" y="-344.396" fill="#C91F27" width="68.705" height="70.486"/>
	<rect x="577.5" y="1518.333" fill="#575759" width="48.833" height="47.758"/>
	<rect x="1162.5" y="1446.333" fill="#58595A" width="42.5" height="45.667"/>
	<rect x="1445.5" y="1503.333" fill="#414041" width="68.167" height="65.667"/>
	<rect x="1537.5" y="1503.333" fill="#414041" width="68.167" height="65.667"/>
	<rect x="1633.5" y="1503.333" fill="#414041" width="68.167" height="65.667"/>
	<rect x="1099.5" y="1446.333" fill="#58595A" width="42.5" height="45.667"/>
	<rect x="1035.5" y="1446.333" fill="#58595A" width="42.5" height="45.667"/>
	<rect x="577.5" y="1446.333" fill="#575759" width="48.833" height="47.758"/>
	<rect x="577.5" y="1377.333" fill="#575759" width="48.833" height="47.758"/>
	<rect x="1036.5" y="-561.396" fill="#404042" width="357.835" height="211.063"/>
	<rect x="2076.5" y="-595.396" fill="#404042" width="640.479" height="278.979"/>
	<rect x="1487.5" y="-235.396" fill="#EE5851" width="68.705" height="70.486"/>
	<rect x="1328.5" y="-248.396" fill="#57595B" width="68.705" height="70.486"/>
	<rect x="1231.5" y="-248.396" fill="#57595B" width="68.705" height="70.486"/>
	<rect x="1132.5" y="-248.396" fill="#57595B" width="68.705" height="70.486"/>
	<rect x="1033.5" y="-248.396" fill="#57595B" width="68.705" height="70.486"/>
	<rect x="495.5" y="-665.5" fill="#949599" width="145" height="27"/>
	<rect x="495.5" y="-525.5" fill="#949599" width="145" height="27"/>
	<rect x="495.5" y="-387.5" fill="#939498" width="145" height="27"/>
	<rect x="495.5" y="-247.5" fill="#939498" width="145" height="27"/>
	<rect x="74.5" y="-247.5" fill="#E5E6E8" width="257" height="32"/>
	<rect x="74.5" y="-505.5" fill="#E6E6E8" width="257" height="32"/>
	<rect x="74.5" y="-652.5" fill="#F36422" width="211" height="135"/>
	<rect x="74.5" y="-387.5" fill="#E6A233" width="128" height="130"/>
	<rect x="42.5" y="1377.5" fill="#E6A233" width="182.669" height="185.523"/>
	<rect x="1568.5" y="-555.5" fill="#949597" width="98" height="20"/>
	<rect x="1568.5" y="-447.5" fill="#959496" width="98" height="20"/>
	<rect x="1568.5" y="-344.5" fill="#959597" width="98" height="20"/>
	<rect x="2153.5" y="-689.333" fill="#959597" width="185.499" height="11.666"/>
	<rect x="1568.5" y="-236.5" fill="#939396" width="98" height="20"/>
	<rect x="2374.5" y="510.344" fill="#D1D1D1" width="80.5" height="12.813"/>
	<rect x="2492.5" y="510.344" fill="#D1D1D1" width="80.5" height="12.813"/>
	<rect x="2610.5" y="510.344" fill="#D1D1D1" width="80.5" height="12.813"/>
	<rect x="2472" y="-769" fill="#E5E6E8" width="254" height="28"/>
	<rect x="2035" y="-769" fill="#E5E6E8" width="106.009" height="28"/>
	<rect x="2726.5" y="-769.5" fill="#F4641E" width="29" height="28"/>
	<rect x="2599.48" y="80.9" fill="#E5E6E8" width="108.52" height="20.675"/>
	<rect x="2471.48" y="80.9" fill="#E5E6E8" width="108.52" height="20.675"/>
	<rect x="2388.48" y="80.9" fill="#A9AAAC" width="21.187" height="20.675"/>
	<rect x="2427.48" y="80.9" fill="#A9AAAC" width="21.187" height="20.675"/>
	<rect x="2726.211" y="80.529" fill="#F4641E" width="28.825" height="20.675"/>
	<rect x="995.5" y="947.5" fill="#58585A" width="745.5" height="53.166"/>
	<rect x="1571.48" y="958.9" fill="#E5E6E8" width="108.52" height="20.675"/>
	<rect x="1443.48" y="958.9" fill="#E5E6E8" width="108.52" height="20.675"/>
	<rect x="1360.48" y="958.9" fill="#A9AAAC" width="21.187" height="20.675"/>
	<rect x="1399.48" y="958.9" fill="#A9AAAC" width="21.187" height="20.675"/>
	<rect x="1698.211" y="958.529" fill="#F4641E" width="28.825" height="21.046"/>
	<rect x="2543" y="-201" fill="#404042" width="49" height="45"/>
	<rect x="2604.5" y="-200.5" fill="#58595A" width="49" height="45"/>
	<rect x="2667.5" y="-200.5" fill="#6D6D71" width="49" height="45"/>
	<rect x="1067.5" y="104.5" fill="#C31E3E" width="272.549" height="272.047"/>
	<polygon fill="#FFFFFF" points="1177,203.054 1228.123,239.092 1177,273.427 	"/>
	<rect x="360" y="958" fill="#404042" width="27" height="26"/>
	<rect x="404" y="958" fill="#404042" width="27" height="26"/>
	<rect x="263" y="1378" fill="#58585A" width="257" height="25"/>
	<rect x="636" y="1377" fill="#575759" width="67" height="7"/>
	<rect x="636" y="1450" fill="#575759" width="67" height="7"/>
	<rect x="636" y="1518" fill="#575759" width="67" height="7"/>
	<rect x="2371" y="406" fill="#EE6524" width="88" height="88"/>
	<rect x="1038" y="441" fill="#EE6524" width="104.061" height="112.36"/>
	<rect x="1176" y="441" fill="#EE6524" width="102.061" height="110.2"/>
	<rect x="1317" y="441" fill="#EE6524" width="104" height="112.294"/>
	<rect x="2489" y="406" fill="#EE6524" width="88" height="88"/>
	<rect x="2610" y="406" fill="#EE6524" width="88" height="88"/>
	<rect x="2371" y="163" fill="#221E1F" width="327" height="211"/>
	<line fill="none" stroke="#221E1F" stroke-width="3" stroke-miterlimit="10" x1="2088" y1="358.5" x2="2263" y2="358.5"/>
	<polygon fill="#D1D1D1" points="2353.5,247 2353.5,269 2333,258 	"/>
	<polygon fill="#D1D1D1" points="2708,247 2708,269 2728.5,258 	"/>
	<rect x="2027" y="608" fill="#2C2C2E" width="734" height="117"/>
	<rect x="1368.5" y="171.5" fill="#6C6D6F" width="238" height="32"/>
	<rect x="1480" y="464" fill="#8E8E90" width="196" height="16"/>
	<rect x="1480" y="552" fill="#8E8E90" width="196" height="16"/>
	<rect x="1480" y="640" fill="#8E8E90" width="196" height="16"/>
	<rect x="1038" y="564" fill="#A5A7A6" width="104" height="19"/>
	<rect x="1176" y="564" fill="#A5A7A6" width="104" height="19"/>
	<rect x="1317" y="564" fill="#A5A7A6" width="104" height="19"/>
	<rect x="1288" y="1283" fill="#575757" width="27" height="28"/>
	<rect x="1330" y="1283" fill="#575757" width="27" height="28"/>
	<rect x="1375" y="1283" fill="#575757" width="27" height="28"/>
	<rect x="1418" y="1283" fill="#575757" width="27" height="28"/>
	<rect x="1035" y="1362" fill="#F26523" width="170" height="15"/>
	<rect x="2060" y="1042" fill="#404042" width="104" height="105"/>
	<rect x="2060" y="1163" fill="#404042" width="104" height="105"/>
	<rect x="2060" y="1282" fill="#404042" width="104" height="105"/>
	<rect x="2182" y="1282" fill="#2B2B2D" width="545" height="100"/>
	<rect x="2182" y="1165" fill="#2B2B2D" width="545" height="100"/>
	<rect x="2182" y="1047" fill="#2B2B2D" width="545" height="100"/>
	<rect x="2056" y="1502" fill="#EE6628" width="130" height="17"/>
	<rect x="2237" y="1502" fill="#EE6628" width="130" height="17"/>
	<rect x="2419" y="1502" fill="#EE6628" width="130" height="17"/>
	<rect x="2422" y="1426" fill="#373435" width="301.5" height="9.75"/>
	<rect x="2422" y="1404" fill="#373435" width="301.5" height="9.75"/>
	<rect x="2062" y="963" fill="#EE6628" width="196" height="18"/>
</g>
<g id="Capa_7">
	<rect x="42.5" y="91.5" fill="#939498" width="252.102" height="27"/>
</g>
</svg>
