<?xml version="1.0" encoding="utf-8"?>
<!-- Generator: Adobe Illustrator 16.0.3, SVG Export Plug-In . SVG Version: 6.00 Build 0)  -->
<!DOCTYPE svg PUBLIC "-//W3C//DTD SVG 1.1//EN" "http://www.w3.org/Graphics/SVG/1.1/DTD/svg11.dtd">
<svg version="1.1" id="Capa_1" xmlns="http://www.w3.org/2000/svg" xmlns:xlink="http://www.w3.org/1999/xlink" x="0px" y="0px"
	 width="745px" height="768px" viewBox="0 0 745 768" enable-background="new 0 0 745 768" xml:space="preserve">
<g id="Capa_1_1_" display="none">
	<rect y="1791" display="inline" fill="#221E1F" width="744" height="539"/>
	<rect x="-0.5" y="2329.5" display="inline" fill="#2B2B2D" width="745" height="142"/>
	<rect x="-1020" y="1791" display="inline" fill="#221E1F" width="745" height="676"/>
	<rect x="-980.5" y="1880.5" display="inline" fill="#6C6D71" width="662" height="325"/>
	<rect x="-1020.5" y="910.5" display="inline" fill="#231F20" width="745" height="683"/>
	<rect x="-560.5" y="1308.5" display="inline" fill="#404042" width="249" height="284"/>
	<rect x="-974" y="945" display="inline" fill="#414141" width="663" height="325"/>
	<rect x="-0.5" y="914.5" display="inline" fill="#221E1F" width="745" height="675"/>
	<rect x="44.5" y="1027.5" display="inline" fill="#2B2B2D" width="232" height="413"/>
	<rect x="4.5" y="930.5" display="inline" fill="#58585A" width="740.5" height="53.166"/>
	<rect x="44.5" y="1208.5" display="inline" fill="#EE6524" width="232" height="36"/>
	<rect x="-1975.5" y="1883.5" display="inline" fill="#404042" width="663" height="326"/>
	<rect x="-1019.5" y="268.5" display="inline" fill="#231F20" width="744" height="477"/>
	<rect x="-558.5" y="268.5" display="inline" fill="#423E42" width="240" height="477"/>
	<rect x="-1019.5" y="68.5" display="inline" fill="#58585A" width="745" height="200.096"/>
	<rect x="-1980.5" y="173.5" display="inline" fill="#404042" width="663.5" height="571.998"/>
	<rect x="-2013" y="909.064" display="inline" fill="#404042" width="745" height="684.434"/>
	<rect x="-2013" y="1863" display="inline" fill="#231F20" width="745" height="675.498"/>
	<rect x="-1542.5" y="173.5" display="inline" fill="#6C6D71" width="194" height="573"/>
	<rect x="-2016.5" y="68.5" display="inline" fill="#58585A" width="745.5" height="105"/>
	<rect x="-2004.5" y="95.5" display="inline" fill="#F26523" width="216" height="47"/>
	<rect x="-1713.5" y="106.5" display="inline" fill="#D7D8DA" width="132" height="27"/>
	<rect x="-1567.5" y="106.5" display="inline" fill="#E5E6E8" width="132" height="27"/>
	<rect x="-816.5" y="115.667" display="inline" fill="#E5E6E8" width="254.544" height="31.833"/>
	<rect x="-1420.5" y="106.5" display="inline" fill="#E7A234" width="132" height="27"/>
	<rect x="-2012.881" y="1807.5" display="inline" fill="#58585A" width="744.881" height="55.5"/>
	<rect x="-1311.724" y="1822.771" display="inline" fill="#F26523" width="24.42" height="24.843"/>
	<rect x="-1515.724" y="2033.296" display="inline" fill="#F26523" width="24.42" height="26.318"/>
	<rect x="-1569.59" y="1822.296" display="inline" fill="#D7D8DA" width="108.59" height="25.994"/>
	<rect x="-1800.59" y="2033.296" display="inline" fill="#D7D8DA" width="285.295" height="25.994"/>
	<rect x="-1438.59" y="1822.296" display="inline" fill="#D7D8DA" width="108.59" height="25.994"/>
	<rect x="-979.5" y="100.604" display="inline" fill="#E7A234" width="132" height="137.993"/>
	<rect x="-528.5" y="307.604" display="inline" fill="#C21E3C" width="68.705" height="70.486"/>
	<rect x="-528.5" y="416.604" display="inline" fill="#E61D2E" width="68.705" height="70.486"/>
	<rect x="-528.5" y="519.604" display="inline" fill="#C91F27" width="68.705" height="70.486"/>
	<rect x="-1438.5" y="2382.333" display="inline" fill="#575759" width="48.833" height="47.758"/>
	<rect x="-853.5" y="2310.333" display="inline" fill="#58595A" width="42.5" height="45.667"/>
	<rect x="-570.5" y="2367.333" display="inline" fill="#414041" width="68.167" height="65.667"/>
	<rect x="-478.5" y="2367.333" display="inline" fill="#414041" width="68.167" height="65.667"/>
	<rect x="-382.5" y="2367.333" display="inline" fill="#414041" width="68.167" height="65.667"/>
	<rect x="-916.5" y="2310.333" display="inline" fill="#58595A" width="42.5" height="45.667"/>
	<rect x="-980.5" y="2310.333" display="inline" fill="#58595A" width="42.5" height="45.667"/>
	<rect x="-1438.5" y="2310.333" display="inline" fill="#575759" width="48.833" height="47.758"/>
	<rect x="-1438.5" y="2241.333" display="inline" fill="#575759" width="48.833" height="47.758"/>
	<rect x="-979.5" y="302.604" display="inline" fill="#404042" width="357.835" height="211.063"/>
	<rect x="-528.5" y="628.604" display="inline" fill="#EE5851" width="68.705" height="70.486"/>
	<rect x="-687.5" y="615.604" display="inline" fill="#57595B" width="68.705" height="70.486"/>
	<rect x="-784.5" y="615.604" display="inline" fill="#57595B" width="68.705" height="70.486"/>
	<rect x="-883.5" y="615.604" display="inline" fill="#57595B" width="68.705" height="70.486"/>
	<rect x="-982.5" y="615.604" display="inline" fill="#57595B" width="68.705" height="70.486"/>
	<rect x="-1520.5" y="198.5" display="inline" fill="#949599" width="145" height="27"/>
	<rect x="-1520.5" y="338.5" display="inline" fill="#949599" width="145" height="27"/>
	<rect x="-1520.5" y="476.5" display="inline" fill="#939498" width="145" height="27"/>
	<rect x="-1520.5" y="616.5" display="inline" fill="#939498" width="145" height="27"/>
	<rect x="-1973.5" y="1424.5" display="inline" fill="#939498" width="252.102" height="27"/>
	<rect x="-1973.5" y="955.5" display="inline" fill="#939498" width="252.102" height="27"/>
	<rect x="-1619.5" y="1424.5" display="inline" fill="#939498" width="252.102" height="27"/>
	<rect x="-1941.5" y="616.5" display="inline" fill="#E5E6E8" width="257" height="32"/>
	<rect x="-1941.5" y="358.5" display="inline" fill="#E6E6E8" width="257" height="32"/>
	<rect x="-1941.5" y="211.5" display="inline" fill="#F36422" width="211" height="135"/>
	<rect x="-1941.5" y="476.5" display="inline" fill="#E6A233" width="128" height="130"/>
	<rect x="-1973.5" y="2241.5" display="inline" fill="#E6A233" width="182.669" height="185.523"/>
	<rect x="-447.5" y="308.5" display="inline" fill="#949597" width="98" height="20"/>
	<rect x="-447.5" y="416.5" display="inline" fill="#959496" width="98" height="20"/>
	<rect x="-447.5" y="519.5" display="inline" fill="#959597" width="98" height="20"/>
	<rect x="-447.5" y="627.5" display="inline" fill="#939396" width="98" height="20"/>
	<rect x="358.5" y="1374.344" display="inline" fill="#D1D1D1" width="80.5" height="12.813"/>
	<rect x="476.5" y="1374.344" display="inline" fill="#D1D1D1" width="80.5" height="12.813"/>
	<rect x="594.5" y="1374.344" display="inline" fill="#D1D1D1" width="80.5" height="12.813"/>
	<rect x="583.481" y="944.9" display="inline" fill="#E5E6E8" width="108.519" height="20.675"/>
	<rect x="455.481" y="944.9" display="inline" fill="#E5E6E8" width="108.519" height="20.675"/>
	<rect x="372.481" y="944.9" display="inline" fill="#A9AAAC" width="21.186" height="20.675"/>
	<rect x="411.481" y="944.9" display="inline" fill="#A9AAAC" width="21.186" height="20.675"/>
	<rect x="710.211" y="944.529" display="inline" fill="#F4641E" width="28.825" height="20.675"/>
	<rect x="-1020.5" y="1811.5" display="inline" fill="#58585A" width="745.5" height="53.166"/>
	<rect x="-444.519" y="1822.9" display="inline" fill="#E5E6E8" width="108.519" height="20.675"/>
	<rect x="-572.519" y="1822.9" display="inline" fill="#E5E6E8" width="108.519" height="20.675"/>
	<rect x="-655.519" y="1822.9" display="inline" fill="#A9AAAC" width="21.186" height="20.675"/>
	<rect x="-616.519" y="1822.9" display="inline" fill="#A9AAAC" width="21.186" height="20.675"/>
	<rect x="-317.789" y="1822.529" display="inline" fill="#F4641E" width="28.825" height="21.046"/>
	<rect x="-1981.5" y="1020.5" display="inline" fill="#C31E3E" width="664" height="327"/>
	<polygon display="inline" fill="#FFFFFF" points="-1675,1119.054 -1581.325,1185.087 -1675,1248 	"/>
	<rect x="-948.5" y="968.5" display="inline" fill="#C31E3E" width="272.549" height="272.047"/>
	<polygon display="inline" fill="#FFFFFF" points="-839,1067.054 -787.877,1103.092 -839,1137.427 	"/>
	<rect x="-1974" y="989" display="inline" fill="#231F20" width="361" height="12"/>
	<rect x="-1656" y="1822" display="inline" fill="#404042" width="27" height="26"/>
	<rect x="-1612" y="1822" display="inline" fill="#404042" width="27" height="26"/>
	<rect x="-1753" y="2242" display="inline" fill="#58585A" width="257" height="25"/>
	<rect x="-1380" y="2241" display="inline" fill="#575759" width="67" height="7"/>
	<rect x="-1380" y="2314" display="inline" fill="#575759" width="67" height="7"/>
	<rect x="-1380" y="2382" display="inline" fill="#575759" width="67" height="7"/>
	<rect x="355" y="1270" display="inline" fill="#EE6524" width="88" height="88"/>
	<rect x="-978" y="1305" display="inline" fill="#EE6524" width="104.061" height="112.36"/>
	<rect x="-840" y="1305" display="inline" fill="#EE6524" width="102.061" height="110.2"/>
	<rect x="-699" y="1305" display="inline" fill="#EE6524" width="104" height="112.294"/>
	<rect x="473" y="1270" display="inline" fill="#EE6524" width="88" height="88"/>
	<rect x="594" y="1270" display="inline" fill="#EE6524" width="88" height="88"/>
	<rect x="355" y="1027" display="inline" fill="#221E1F" width="327" height="211"/>
	
		<line display="inline" fill="none" stroke="#221E1F" stroke-width="3" stroke-miterlimit="10" x1="72" y1="1222.5" x2="247" y2="1222.5"/>
	<polygon display="inline" fill="#D1D1D1" points="337.5,1111 337.5,1133 317,1122 	"/>
	<polygon display="inline" fill="#D1D1D1" points="692,1111 692,1133 712.5,1122 	"/>
	<rect x="11" y="1472" display="inline" fill="#2C2C2E" width="734" height="117"/>
	<rect x="-647.5" y="1035.5" display="inline" fill="#6C6D6F" width="238" height="32"/>
	<rect x="-536" y="1328" display="inline" fill="#8E8E90" width="196" height="16"/>
	<rect x="-536" y="1416" display="inline" fill="#8E8E90" width="196" height="16"/>
	<rect x="-536" y="1504" display="inline" fill="#8E8E90" width="196" height="16"/>
	<rect x="-978" y="1428" display="inline" fill="#A5A7A6" width="104" height="19"/>
	<rect x="-840" y="1428" display="inline" fill="#A5A7A6" width="104" height="19"/>
	<rect x="-699" y="1428" display="inline" fill="#A5A7A6" width="104" height="19"/>
	<rect x="-728" y="2147" display="inline" fill="#575757" width="27" height="28"/>
	<rect x="-686" y="2147" display="inline" fill="#575757" width="27" height="28"/>
	<rect x="-641" y="2147" display="inline" fill="#575757" width="27" height="28"/>
	<rect x="-598" y="2147" display="inline" fill="#575757" width="27" height="28"/>
	<rect x="-981" y="2226" display="inline" fill="#F26523" width="170" height="15"/>
	<rect x="44" y="1906" display="inline" fill="#404042" width="104" height="105"/>
	<rect x="44" y="2027" display="inline" fill="#404042" width="104" height="105"/>
	<rect x="44" y="2146" display="inline" fill="#404042" width="104" height="105"/>
	<rect x="166" y="2146" display="inline" fill="#2B2B2D" width="545" height="100"/>
	<rect x="166" y="2029" display="inline" fill="#2B2B2D" width="545" height="100"/>
	<rect x="166" y="1911" display="inline" fill="#2B2B2D" width="545" height="100"/>
	<rect x="40" y="2366" display="inline" fill="#EE6628" width="130" height="17"/>
	<rect x="221" y="2366" display="inline" fill="#EE6628" width="130" height="17"/>
	<rect x="403" y="2366" display="inline" fill="#EE6628" width="130" height="17"/>
	<rect x="406" y="2290" display="inline" fill="#373435" width="301.5" height="9.75"/>
	<rect x="406" y="2268" display="inline" fill="#373435" width="301.5" height="9.75"/>
	<rect x="46" y="1827" display="inline" fill="#EE6628" width="196" height="18"/>
</g>
<g id="Capa_2" display="none">
	<rect y="64" display="inline" fill="#221E1F" width="745" height="682"/>
</g>
<g id="Capa_3" display="none">
	<rect x="60.5" y="268.604" display="inline" fill="#404042" width="640.479" height="278.979"/>
</g>
<g id="Capa_4" display="none">
	<rect x="60.5" y="175.604" display="inline" fill="#C21E3C" width="64.509" height="62.993"/>
</g>
<g id="Capa_5" display="none">
	<rect x="137.5" y="174.667" display="inline" fill="#959597" width="185.499" height="11.666"/>
</g>
<g id="Capa_6" display="none">
	<rect x="0.5" y="75.5" display="inline" fill="#58585A" width="745" height="72"/>
</g>
<g id="Capa_7" display="none">
	<rect x="456" y="95" display="inline" fill="#E5E6E8" width="254" height="28"/>
</g>
<g id="Capa_8" display="none">
	<rect x="710.5" y="94.5" display="inline" fill="#F4641E" width="29" height="28"/>
</g>
<g id="Capa_9">
	<rect x="19" y="95" fill="#E5E6E8" width="106.009" height="28"/>
</g>
<g id="Capa_10" display="none">
	<rect x="527" y="663" display="inline" fill="#404042" width="49" height="45"/>
</g>
<g id="Capa_11" display="none">
	<rect x="588.5" y="663.5" display="inline" fill="#58595A" width="49" height="45"/>
</g>
<g id="Capa_12" display="none">
	<rect x="651.5" y="663.5" display="inline" fill="#6D6D71" width="49" height="45"/>
</g>
<text transform="matrix(1 0 0 1 51 113.5)" font-family="'MyriadPro-Regular'" font-size="12">boton</text>
</svg>
